<svg xmlns="http://www.w3.org/2000/svg" width="1200" height="900" viewBox="0 0 1200 900" fill="none">
  <defs>
    <radialGradient id="g1" cx="0" cy="0" r="1" gradientUnits="userSpaceOnUse" gradientTransform="translate(540 350) rotate(90) scale(420)">
      <stop stop-color="#38BDF8" stop-opacity="0.55"/>
      <stop offset="0.55" stop-color="#818CF8" stop-opacity="0.18"/>
      <stop offset="1" stop-color="#050914" stop-opacity="0"/>
    </radialGradient>
    <radialGradient id="g2" cx="0" cy="0" r="1" gradientUnits="userSpaceOnUse" gradientTransform="translate(740 540) rotate(90) scale(360)">
      <stop stop-color="#A855F7" stop-opacity="0.35"/>
      <stop offset="1" stop-color="#050914" stop-opacity="0"/>
    </radialGradient>
    <linearGradient id="line" x1="0" y1="0" x2="1200" y2="900" gradientUnits="userSpaceOnUse">
      <stop stop-color="#38BDF8" stop-opacity="0.55"/>
      <stop offset="0.55" stop-color="#818CF8" stop-opacity="0.45"/>
      <stop offset="1" stop-color="#A855F7" stop-opacity="0.35"/>
    </linearGradient>
    <filter id="blur" x="-50%" y="-50%" width="200%" height="200%">
      <feGaussianBlur stdDeviation="18"/>
    </filter>
  </defs>

  <rect width="1200" height="900" fill="url(#g1)"/>
  <rect width="1200" height="900" fill="url(#g2)"/>

  <g opacity="0.85">
    <ellipse cx="640" cy="440" rx="360" ry="220" stroke="url(#line)" stroke-opacity="0.45" stroke-width="2"/>
    <ellipse cx="640" cy="440" rx="290" ry="175" stroke="url(#line)" stroke-opacity="0.35" stroke-width="2"/>
    <ellipse cx="640" cy="440" rx="220" ry="130" stroke="url(#line)" stroke-opacity="0.25" stroke-width="2"/>
  </g>

  <g filter="url(#blur)" opacity="0.8">
    <circle cx="450" cy="360" r="32" fill="#38BDF8" fill-opacity="0.5"/>
    <circle cx="820" cy="520" r="28" fill="#A855F7" fill-opacity="0.45"/>
    <circle cx="730" cy="330" r="20" fill="#818CF8" fill-opacity="0.45"/>
    <circle cx="560" cy="560" r="18" fill="#22C55E" fill-opacity="0.25"/>
  </g>

  <g opacity="0.9">
    <path d="M300 630 C 420 520, 520 510, 620 430 C 740 335, 880 330, 980 250" stroke="white" stroke-opacity="0.08" stroke-width="2"/>
    <path d="M260 290 C 420 360, 520 350, 640 440 C 770 535, 900 560, 1030 640" stroke="white" stroke-opacity="0.07" stroke-width="2"/>
  </g>

  <g opacity="0.12">
    <path d="M110 760 H1090" stroke="white"/>
    <path d="M110 140 H1090" stroke="white"/>
    <path d="M110 140 V760" stroke="white"/>
    <path d="M1090 140 V760" stroke="white"/>
  </g>
</svg>

